<?xml version="1.0" encoding="utf-8"?>
<!-- Svg Vector Icons : http://www.onlinewebfonts.com/icon -->
<!DOCTYPE svg PUBLIC "-//W3C//DTD SVG 1.1//EN" "http://www.w3.org/Graphics/SVG/1.1/DTD/svg11.dtd">
<svg version="1.1" xmlns="http://www.w3.org/2000/svg" xmlns:xlink="http://www.w3.org/1999/xlink" x="0px" y="0px" viewBox="0 0 1000 1000" enable-background="new 0 0 1000 1000" xml:space="preserve">
<metadata> Svg Vector Icons : http://www.onlinewebfonts.com/icon </metadata>
<g><g transform="translate(0.000000,512.000000) scale(0.100000,-0.100000)"><path d="M3552.6,4991.8c-247-65.1-476.7-252.7-585.8-476.7l-51.7-105.3H2582h-333.1v-306.3v-306.3h-551.4c-583.9,0-679.7-11.5-850.1-97.7c-111-55.5-268-210.6-327.4-319.7c-114.9-212.5-109.1-17.2-109.1-3564.9S405.1-3537.5,520-3750c59.3-109.1,216.3-264.2,327.4-319.7c170.4-86.1,266.1-97.6,850.1-97.6h551.4v3675.9v3675.9h2431.5c1702,0,2431.4,5.7,2431.4,21.1c0,9.6-22.9,67-49.8,124.4c-63.2,134-208.7,292.9-327.4,358c-181.9,97.6-271.9,109.1-871.1,109.1h-551.4v306.3v306.3H4979h-333.1l-53.6,111c-65.1,135.9-252.7,327.4-386.7,394.4C3998.7,5020.5,3761.3,5047.3,3552.6,4991.8z M3922.1,4539.9c105.3-30.6,264.2-189.6,294.8-294.9c53.6-180,15.3-323.5-120.6-457.6c-97.6-99.6-195.3-143.6-315.9-143.6c-237.4,0-459.5,222.1-459.5,459.5c0,120.6,44,218.2,143.6,315.9C3598.6,4555.3,3742.2,4591.6,3922.1,4539.9z"/><path d="M2861.5-1104.1V-4780h1428.2H5718l-149.3,137.8c-172.3,162.7-365.7,407.8-493.9,626.1l-91.9,155.1h-448h-448v306.3v306.3h340.8h342.7l-28.7,137.9c-19.1,90-28.7,256.5-30.6,459.5l-1.9,321.7h-310.2h-312.1v306.3v306.3h388.6h386.7l55.5,145.5c67,176.2,243.1,474.8,373.3,635.6c53.6,65.1,97.6,122.5,97.6,128.3c0,5.7-292.9,9.6-650.9,9.6h-650.9v306.3v306.3h1051.1H6187l130.2,59.3C6495.3-45.4,6751.8,37,6952.9,77.2c233.6,45.9,773.4,45.9,1007.1,0c312-63.2,696.9-210.6,947.7-367.6l80.4-49.8v541.8v541.8l-915.1,915.1l-913.3,913.2h-2150H2861.5V-1104.1z M7762.7,1336.9l603.1-603.1H7757H7150v603.1c0,331.2,1.9,603.1,5.8,603.1C7157.7,1940,7431.5,1668.1,7762.7,1336.9z M5924.7,1040.2V733.9h-919h-919v306.3v306.3h919h919V1040.2z"/><path d="M7102.2-522.1C5809.9-749.9,5017.3-2059.5,5419.3-3296.2c241.2-739,857.7-1280.8,1644.6-1449.3c147.4-30.6,637.6-30.6,785,0c884.5,189.5,1527.8,832.8,1717.4,1717.3c30.6,147.4,30.6,637.5,0,785c-193.4,907.5-875,1569.9-1772.9,1723.1C7586.6-485.7,7307.1-485.7,7102.2-522.1z M8714.2-1354.9c235.5-235.5,442.2-451.8,457.5-480.5c42.1-78.5,32.6-155.1-28.7-237.4c-95.7-130.2-947.7-961.1-1007-984.1c-109.1-42.1-178-9.6-358,168.5c-158.9,153.2-170.4,162.7-201,132.1c-30.6-30.6-21.1-42.1,132.1-201c178-180,210.6-248.9,168.5-358c-32.5-86.2-947.7-1001.3-1047.2-1047.2c-149.3-67-174.2-49.8-649,428.9c-455.7,459.5-490.1,507.4-449.9,633.7c13.4,40.2,183.8,224,515,555.2c425,425,503.5,493.9,562.9,505.4c116.8,17.2,168.5-9.6,335-170.4c135.9-134,162.7-151.3,187.6-130.2c26.8,21,9.6,45.9-130.2,189.5c-174.2,178.1-204.9,241.2-168.5,350.4c13.4,42.1,181.9,224,513.1,553.3c271.8,270,511.2,501.6,532.2,513.1c21.1,11.5,76.6,19.2,122.5,13.4C8281.5-928,8302.6-945.2,8714.2-1354.9z"/><path d="M7757-1655.5l-396.3-396.3l124.5-124.4l124.4-122.5l139.8,137.9l139.7,137.9l103.4-105.3l103.4-105.3L7958-2373.4l-137.9-139.8l111.1-109.1l109.1-109.1l398.2,398.2l396.3,396.3l-340.8,340.8l-338.9,338.9L7757-1655.5z"/><path d="M6474.2-2976.5l-396.3-396.3l335-335l335-335l396.3,398.2l398.2,396.3l-118.7,118.7l-120.6,120.6l-134-134l-134-134l-109.1,111L6815-3056.9l134,134l134,134l-105.3,105.3l-105.3,105.3L6474.2-2976.5z"/></g></g>
</svg>